<svg width="26" height="50" viewBox="0 0 26 50" fill="none" xmlns="http://www.w3.org/2000/svg">
<path d="M20.2298 3.21152C20.8977 3.21152 21.5382 3.53933 22.0104 4.12283C22.4827 4.70634 22.748 5.49774 22.748 6.32294V43.66C22.748 44.4852 22.4827 45.2766 22.0104 45.8601C21.5382 46.4436 20.8977 46.7714 20.2298 46.7714H5.12043C4.45256 46.7714 3.81204 46.4436 3.33978 45.8601C2.86752 45.2766 2.60221 44.4852 2.60221 43.66V6.32294C2.60221 5.49774 2.86752 4.70634 3.33978 4.12283C3.81204 3.53933 4.45256 3.21152 5.12043 3.21152H20.2298ZM5.12043 0.100098C3.78469 0.100098 2.50364 0.755716 1.55913 1.92273C0.614609 3.08973 0.0839844 4.67254 0.0839844 6.32294V43.66C0.0839844 45.3104 0.614609 46.8932 1.55913 48.0602C2.50364 49.2272 3.78469 49.8828 5.12043 49.8828H20.2298C21.5655 49.8828 22.8466 49.2272 23.7911 48.0602C24.7356 46.8932 25.2662 45.3104 25.2662 43.66V6.32294C25.2662 4.67254 24.7356 3.08973 23.7911 1.92273C22.8466 0.755716 21.5655 0.100098 20.2298 0.100098L5.12043 0.100098Z" fill="#16A316"/>
</svg>
